<svg id="visual" viewBox="0 0 900 600" width="900" height="600" xmlns="http://www.w3.org/2000/svg" xmlns:xlink="http://www.w3.org/1999/xlink" version="1.1"><rect x="0" y="0" width="900" height="600" fill="#fff"></rect><path d="M0 393L180 393L180 408L360 408L360 370L540 370L540 353L720 353L720 313L900 313L900 342L900 601L900 601L720 601L720 601L540 601L540 601L360 601L360 601L180 601L180 601L0 601Z" fill="#9900ff"></path><path d="M0 430L180 430L180 457L360 457L360 407L540 407L540 486L720 486L720 461L900 461L900 464L900 601L900 601L720 601L720 601L540 601L540 601L360 601L360 601L180 601L180 601L0 601Z" fill="#7700c6"></path><path d="M0 513L180 513L180 536L360 536L360 525L540 525L540 506L720 506L720 508L900 508L900 538L900 601L900 601L720 601L720 601L540 601L540 601L360 601L360 601L180 601L180 601L0 601Z" fill="#560090"></path></svg>